<svg width="20" height="20" viewBox="0 0 20 20" fill="none" xmlns="http://www.w3.org/2000/svg">
<circle cx="9.87436" cy="9.87436" r="8.55799" stroke="white" stroke-width="1.22257"/>
<path d="M13.0694 6.97142C13.0694 7.27228 13.0241 7.55405 12.9333 7.81671C12.8426 8.0746 12.7256 8.29905 12.5823 8.49008C12.439 8.68111 12.279 8.86258 12.1023 9.03451C11.9304 9.20643 11.7561 9.37358 11.5794 9.53595C11.4027 9.69832 11.2403 9.86308 11.0923 10.0302C10.949 10.1974 10.8296 10.3932 10.7341 10.6176C10.6386 10.8373 10.5861 11.0737 10.5765 11.3268L10.5622 11.6492H9.21546V11.2552C9.21546 10.9591 9.25844 10.6797 9.3444 10.4171C9.43514 10.1496 9.54975 9.918 9.68825 9.7222C9.83152 9.5264 9.98673 9.34015 10.1539 9.16345C10.3258 8.98197 10.4953 8.81005 10.6625 8.64768C10.8344 8.48053 10.9896 8.31577 11.1281 8.15339C11.2714 7.98625 11.386 7.80238 11.472 7.60181C11.5627 7.40123 11.6081 7.1911 11.6081 6.97142C11.6081 6.50818 11.46 6.15 11.1639 5.89689C10.8678 5.64378 10.4476 5.51723 9.90315 5.51723C9.36828 5.51723 8.93608 5.67482 8.60656 5.99002C8.27704 6.30044 8.11228 6.78755 8.11228 7.45137V7.86685H6.62943V7.3081C6.62943 6.79711 6.71778 6.33864 6.89448 5.93271C7.07118 5.52678 7.30997 5.19726 7.61083 4.94415C7.91648 4.69104 8.26271 4.50001 8.64954 4.37107C9.04115 4.23735 9.45902 4.17049 9.90315 4.17049C10.8726 4.17049 11.6415 4.41644 12.2098 4.90833C12.7829 5.40022 13.0694 6.08792 13.0694 6.97142ZM9.88883 15.4602C9.64049 15.4602 9.42559 15.3718 9.24411 15.1951C9.06741 15.0136 8.97906 14.8011 8.97906 14.5576C8.97906 14.3045 9.06741 14.0872 9.24411 13.9057C9.42559 13.7194 9.64049 13.6263 9.88883 13.6263C10.1467 13.6263 10.364 13.7194 10.5407 13.9057C10.7222 14.0872 10.8129 14.3045 10.8129 14.5576C10.8129 14.8011 10.7222 15.0136 10.5407 15.1951C10.364 15.3718 10.1467 15.4602 9.88883 15.4602Z" fill="white"/>
</svg>
