<svg width="52" height="66" viewBox="0 0 52 66" fill="none" xmlns="http://www.w3.org/2000/svg">
<path d="M12.48 19.216H14.4303L20.3866 13.5539L14.4303 7.86133H12.48L18.3911 13.5539L12.48 19.216Z" fill="black"/>
<path d="M28.2185 13.4782C28.0202 14.3833 27.35 14.9661 26.3447 14.9661C25.0194 14.9661 24.151 13.908 24.151 12.3733C24.151 10.8235 25.0194 9.74895 26.3447 9.74895C27.3651 9.74895 28.0202 10.3166 28.2336 11.2369H29.9554C29.6354 9.45697 28.3866 8.33691 26.3761 8.33691C24.0153 8.33691 22.4604 9.94867 22.4604 12.3733C22.4604 14.8283 23.969 16.3782 26.3297 16.3782C28.3252 16.3782 29.6505 15.2581 29.9554 13.4782H28.2185Z" fill="black"/>
<path d="M32.4136 12.2823H35.0642V18.6814H36.7095V12.2823H39.3601V10.8247H32.4136V12.2823Z" fill="black"/>
<path d="M41.4861 24.6774C41.9731 25.3829 42.8114 25.8746 44.015 25.8746C46.1485 25.8746 47.7022 24.2792 47.7022 21.8545C47.7022 19.3376 46.1485 17.8345 44.015 17.8345C42.7964 17.8345 41.9894 18.4021 41.4711 19.0923L41.2728 17.9256H39.8408V28.8516H41.4861V24.6774ZM43.7414 19.2453C45.1119 19.2453 46.0267 20.3047 46.0267 21.8545C46.0267 23.3892 45.113 24.4789 43.7414 24.4789C42.3697 24.4789 41.4711 23.3892 41.4711 21.8241C41.4711 20.3035 42.3697 19.2453 43.7414 19.2453Z" fill="black"/>
<path d="M49.3433 29.1914L49.145 30.3418C48.6418 29.62 47.8197 29.0991 46.6011 29.0991C44.4838 29.0991 42.915 30.6945 42.915 33.1192C42.915 35.6361 44.4838 37.1392 46.6011 37.1392C47.8197 37.1392 48.6429 36.5564 49.145 35.8498L49.327 37.0469H50.7741V29.1902H49.3433V29.1914ZM46.8759 35.7435C45.5053 35.7435 44.6056 34.669 44.6056 33.1192C44.6056 31.5845 45.5042 30.51 46.8759 30.51C48.2475 30.51 49.1462 31.5997 49.1462 33.1495C49.1462 34.6702 48.2475 35.7435 46.8759 35.7435Z" fill="black"/>
<path d="M47.4202 39.9727H41.1439V43.2102C41.1439 45.4655 40.854 46.0027 40.3055 46.3718H39.4985V49.9013H41.1137V47.8294H47.07V49.9013H48.6852V46.3718H47.4202V39.9727ZM45.7749 46.3718H42.1642C42.5144 45.8042 42.6976 44.9597 42.6976 43.3947V41.4302H45.7749V46.3718Z" fill="black"/>
<path d="M35.6777 50.0825C35.1745 49.3607 34.3524 48.8398 33.1338 48.8398C31.0166 48.8398 29.4478 50.4353 29.4478 52.8599C29.4478 55.3768 31.0166 56.8799 33.1338 56.8799C34.3524 56.8799 35.1756 56.2971 35.6777 55.5905L35.8597 56.7877H37.3068V48.9309H35.8748L35.6777 50.0825ZM33.4074 55.4831C32.0369 55.4831 31.1371 54.4086 31.1371 52.8587C31.1371 51.324 32.0357 50.2495 33.4074 50.2495C34.7779 50.2495 35.6777 51.3392 35.6777 52.8891C35.6777 54.4097 34.7791 55.4831 33.4074 55.4831Z" fill="black"/>
<path d="M23.2762 49.8979C22.0576 49.8979 21.2506 50.4656 20.7323 51.1558L20.534 49.9891H19.1021V60.9151H20.7474V56.7409C21.2355 57.4463 22.0727 57.938 23.2762 57.938C25.4085 57.938 26.9623 56.3426 26.9623 53.918C26.9623 51.4011 25.4085 49.8979 23.2762 49.8979ZM23.0026 56.5423C21.6321 56.5423 20.7323 55.4527 20.7323 53.8876C20.7323 52.3681 21.6309 51.31 23.0026 51.31C24.3731 51.31 25.2879 52.3693 25.2879 53.9192C25.2868 55.4527 24.3731 56.5423 23.0026 56.5423Z" fill="black"/>
<path d="M10.4461 50.4585V45.0112H8.84717V52.868H10.2791L14.4985 47.4055V52.868H16.0986V45.0112H14.6504L10.4461 50.4585Z" fill="black"/>
<path d="M8.6319 35.8383L6.51467 41.8077L4.33598 35.8383H2.58398L5.61606 43.7406L5.31111 44.5079C5.06762 45.1526 4.91457 45.3056 4.27569 45.3056H3.11735V46.7632H4.88442C6.02652 46.7632 6.36277 46.1956 6.84976 44.9214L10.3839 35.8372H8.6319V35.8383Z" fill="black"/>
<path d="M2.76326 27.6557L5.23182 33.0574H6.5119L8.9793 27.6557V33.0574H10.518L10.5029 25.2007H8.56768L5.91708 31.1385L3.20502 25.2007H1.22461V33.0574H2.76326V27.6557Z" fill="black"/>
<path d="M19.4475 8.89745C20.0993 8.89745 20.6278 8.36513 20.6278 7.70849C20.6278 7.05185 20.0993 6.51953 19.4475 6.51953C18.7956 6.51953 18.2671 7.05185 18.2671 7.70849C18.2671 8.36513 18.7956 8.89745 19.4475 8.89745Z" fill="black"/>
<path d="M6.72741 20.5006C6.72741 19.787 7.30368 19.2054 8.01329 19.2054H9.03365C10.425 19.2054 11.5567 18.0655 11.5567 16.6639V15.6362C11.5567 14.9225 12.133 14.3409 12.8426 14.3409H15.7668V13.0947H12.8426C11.4512 13.0947 10.3195 14.2346 10.3195 15.6362V16.6639C10.3195 17.3776 9.74326 17.9592 9.03365 17.9592H8.01329C6.6219 17.9592 5.49023 19.0991 5.49023 20.5006V23.4462H6.72741V20.5006Z" fill="black"/>
</svg>
